<svg xmlns="http://www.w3.org/2000/svg" width="300" height="100" viewBox="0 0 300 100">
    <rect width="100%" height="100%" fill="#DDDDDD" />
    <path fill="#999999"
        d="m76.795 37.635-7.38 12.4v7.84h-3.75v-7.84l-7.38-12.4h3.32q.49 0 .78.23.29.24.48.61l3.7 6.76q.32.6.57 1.13.24.53.44 1.07.18-.54.42-1.07.23-.53.54-1.13l3.68-6.76q.16-.31.47-.58.3-.26.78-.26zm7.88 5.65q1.6 0 2.91.52t2.24 1.47 1.43 2.32q.51 1.38.51 3.07 0 1.71-.51 3.08-.5 1.37-1.43 2.34-.93.96-2.24 1.48t-2.91.52q-1.61 0-2.92-.52-1.32-.52-2.25-1.48-.93-.97-1.44-2.34t-.51-3.08q0-1.69.51-3.07.51-1.37 1.44-2.32t2.25-1.47q1.31-.52 2.92-.52m0 12.14q1.8 0 2.66-1.2.86-1.21.86-3.53 0-2.33-.86-3.54-.86-1.22-2.66-1.22-1.82 0-2.69 1.22-.88 1.23-.88 3.54t.88 3.52q.87 1.21 2.69 1.21m18.65-11.91h3.46v14.36h-2.11q-.69 0-.87-.63l-.24-1.15q-.88.9-1.95 1.45-1.06.55-2.5.55-1.18 0-2.08-.4-.9-.39-1.52-1.12t-.93-1.73q-.32-1-.32-2.21v-9.12h3.46v9.12q0 1.32.61 2.04t1.83.72q.89 0 1.68-.4.78-.4 1.48-1.1zm9.93.86.21 1.63q.67-1.29 1.59-2.02.93-.74 2.19-.74.99 0 1.59.43l-.22 2.59q-.07.26-.2.36-.14.11-.36.11-.21 0-.62-.07-.42-.07-.81-.07-.57 0-1.02.16-.45.17-.8.49-.36.31-.63.76-.28.45-.52 1.02v8.85h-3.45v-14.36h2.03q.53 0 .74.18.21.19.28.68m14.24-7.3h3.45v20.8h-3.45zm13.27 6.21q1.59 0 2.9.52t2.24 1.47 1.44 2.32q.5 1.38.5 3.07 0 1.71-.5 3.08-.51 1.37-1.44 2.34-.93.96-2.24 1.48t-2.9.52q-1.61 0-2.93-.52-1.31-.52-2.24-1.48-.94-.97-1.45-2.34t-.51-3.08q0-1.69.51-3.07.51-1.37 1.45-2.32.93-.95 2.24-1.47 1.32-.52 2.93-.52m0 12.14q1.79 0 2.65-1.2.86-1.21.86-3.53 0-2.33-.86-3.54-.86-1.22-2.65-1.22-1.82 0-2.7 1.22-.87 1.23-.87 3.54t.87 3.52q.88 1.21 2.7 1.21m14.98-5.08q.64 0 1.12-.18.47-.17.79-.48.31-.31.48-.74.16-.44.16-.95 0-1.07-.64-1.69t-1.91-.62q-1.28 0-1.91.62-.64.62-.64 1.69 0 .5.16.93.16.44.48.75.31.32.8.49.48.18 1.11.18m3.9 8.17q0-.42-.25-.68-.25-.27-.68-.42-.44-.14-1.02-.21t-1.23-.11l-1.34-.06q-.7-.03-1.36-.11-.57.32-.93.75-.35.44-.35 1.01 0 .38.19.71.18.33.6.57.41.23 1.07.37.66.13 1.61.13.96 0 1.66-.15.7-.14 1.16-.4.45-.26.66-.62t.21-.78m-.68-14.51h4.13v1.28q0 .62-.74.76l-1.29.24q.29.74.29 1.62 0 1.07-.42 1.93-.43.86-1.19 1.46-.75.6-1.78.93t-2.22.33q-.42 0-.81-.04-.4-.04-.77-.11-.68.4-.68.91 0 .43.4.63.4.21 1.06.29t1.5.1q.84.03 1.72.1t1.72.24q.84.18 1.5.55.66.38 1.06 1.03t.4 1.68q0 .95-.47 1.84-.47.9-1.36 1.6t-2.18 1.13q-1.3.42-2.95.42-1.63 0-2.83-.31-1.2-.32-2-.84-.8-.53-1.19-1.21-.39-.69-.39-1.43 0-1.01.61-1.69.6-.68 1.67-1.08-.58-.3-.91-.79-.34-.49-.34-1.28 0-.33.12-.67t.35-.68q.23-.33.58-.64.35-.3.83-.53-1.09-.59-1.72-1.57-.62-.98-.62-2.3 0-1.06.43-1.92.42-.86 1.19-1.47.76-.61 1.8-.93 1.05-.33 2.28-.33.92 0 1.73.19.82.19 1.49.56m12.67-.72q1.59 0 2.9.52t2.24 1.47 1.44 2.32q.5 1.38.5 3.07 0 1.71-.5 3.08-.51 1.37-1.44 2.34-.93.96-2.24 1.48t-2.9.52q-1.61 0-2.93-.52-1.31-.52-2.24-1.48-.94-.97-1.45-2.34t-.51-3.08q0-1.69.51-3.07.51-1.37 1.45-2.32.93-.95 2.24-1.47 1.32-.52 2.93-.52m0 12.14q1.79 0 2.65-1.2.86-1.21.86-3.53 0-2.33-.86-3.54-.86-1.22-2.65-1.22-1.82 0-2.7 1.22-.87 1.23-.87 3.54t.87 3.52q.88 1.21 2.7 1.21m19.99-18.35v7.98q.84-.79 1.85-1.28t2.36-.49q1.18 0 2.09.4t1.52 1.12.92 1.72q.32 1 .32 2.21v9.14h-3.46v-9.14q0-1.32-.6-2.04t-1.84-.72q-.89 0-1.68.41-.78.4-1.48 1.1v10.39h-3.46v-20.8zm15.06 11.97h6.53q0-.68-.19-1.27-.19-.6-.57-1.04-.38-.45-.96-.71t-1.35-.26q-1.5 0-2.36.85-.86.86-1.1 2.43m8.82 2.08h-8.89q.09 1.11.4 1.91.3.81.81 1.33.5.53 1.2.79.69.26 1.53.26t1.45-.2 1.06-.43q.46-.24.8-.44.34-.19.66-.19.44 0 .65.32l.99 1.26q-.57.67-1.29 1.12-.71.46-1.49.73-.77.28-1.58.39-.8.11-1.56.11-1.5 0-2.79-.5-1.28-.49-2.24-1.47-.95-.97-1.49-2.41-.55-1.43-.55-3.32 0-1.47.48-2.77.47-1.29 1.36-2.25t2.17-1.52 2.89-.56q1.36 0 2.51.44 1.15.43 1.97 1.26.83.84 1.3 2.05t.47 2.76q0 .79-.17 1.06t-.65.27m6.46-6.75.21 1.63q.67-1.29 1.59-2.02.93-.74 2.19-.74.99 0 1.59.43l-.22 2.59q-.07.26-.2.36-.14.11-.36.11-.21 0-.62-.07-.42-.07-.81-.07-.57 0-1.02.16-.45.17-.8.49-.36.31-.63.76-.28.45-.52 1.02v8.85h-3.45v-14.36h2.03q.53 0 .74.18.21.19.28.68m10.12 4.67h6.52q0-.68-.18-1.27-.19-.6-.57-1.04-.38-.45-.96-.71t-1.35-.26q-1.5 0-2.36.85-.86.86-1.1 2.43m8.82 2.08h-8.89q.08 1.11.39 1.91.31.81.81 1.33.51.53 1.2.79t1.53.26 1.45-.2 1.07-.43q.45-.24.8-.44.34-.19.66-.19.43 0 .64.32l1 1.26q-.58.67-1.29 1.12-.71.46-1.49.73-.78.28-1.58.39-.81.11-1.56.11-1.5 0-2.79-.5-1.29-.49-2.24-1.47-.95-.97-1.5-2.41-.54-1.43-.54-3.32 0-1.47.47-2.77.48-1.29 1.37-2.25t2.17-1.52 2.89-.56q1.36 0 2.5.44 1.15.43 1.98 1.26.82.84 1.29 2.05t.47 2.76q0 .79-.17 1.06-.16.27-.64.27" />
</svg>